<svg width="400" height="400" viewBox="0 0 400 400" fill="none" xmlns="http://www.w3.org/2000/svg">
  <rect width="400" height="400" fill="none" />
  <g fill="#F8F7FF" opacity="0.6">
    <circle cx="32" cy="54" r="1.4" />
    <circle cx="118" cy="32" r="1" />
    <circle cx="210" cy="68" r="1.6" />
    <circle cx="356" cy="40" r="1.2" />
    <circle cx="82" cy="142" r="1.3" />
    <circle cx="24" cy="208" r="1.1" />
    <circle cx="168" cy="202" r="1.5" />
    <circle cx="284" cy="156" r="1" />
    <circle cx="360" cy="180" r="1.3" />
    <circle cx="320" cy="246" r="1.2" />
    <circle cx="60" cy="260" r="1.6" />
    <circle cx="140" cy="312" r="1.4" />
    <circle cx="20" cy="340" r="1" />
    <circle cx="212" cy="328" r="1.3" />
    <circle cx="276" cy="300" r="1.5" />
    <circle cx="360" cy="332" r="1.1" />
    <circle cx="380" cy="260" r="1.2" />
    <circle cx="96" cy="360" r="1.4" />
    <circle cx="188" cy="120" r="1.1" />
    <circle cx="242" cy="220" r="1.2" />
  </g>
  <g fill="#7CD8FF" opacity="0.35">
    <circle cx="64" cy="96" r="2.2" />
    <circle cx="150" cy="34" r="2" />
    <circle cx="312" cy="88" r="2.4" />
    <circle cx="248" cy="24" r="2" />
    <circle cx="40" cy="176" r="2.2" />
    <circle cx="108" cy="228" r="2.4" />
    <circle cx="200" cy="284" r="2.2" />
    <circle cx="324" cy="332" r="2.1" />
    <circle cx="360" cy="120" r="2.3" />
    <circle cx="272" cy="212" r="2" />
    <circle cx="120" cy="344" r="2.2" />
  </g>
  <g fill="#FF88F3" opacity="0.25">
    <circle cx="92" cy="40" r="2.6" />
    <circle cx="36" cy="120" r="2.4" />
    <circle cx="220" cy="124" r="2.8" />
    <circle cx="300" cy="224" r="2.5" />
    <circle cx="352" cy="272" r="2.4" />
    <circle cx="180" cy="360" r="2.7" />
    <circle cx="60" cy="312" r="2.5" />
  </g>
</svg>
